<?xml version="1.0" encoding="UTF-8"?>
<svg width="67px" height="74px" viewBox="0 0 67 74" version="1.1" xmlns="http://www.w3.org/2000/svg" xmlns:xlink="http://www.w3.org/1999/xlink">
    <!-- Generator: Sketch 51.3 (57544) - http://www.bohemiancoding.com/sketch -->
    <title>Page 1 Copy 2</title>
    <desc>Created with Sketch.</desc>
    <defs>
        <polygon id="path-1" points="0 0 67 0 67 74 0 74"></polygon>
    </defs>
    <g id="Page-1" stroke="none" stroke-width="1" fill="none" fill-rule="evenodd">
        <g id="GOなどのシリーズ" transform="translate(-785.000000, -678.000000)">
            <g id="Page-1-Copy-2" transform="translate(785.000000, 678.000000)">
                <mask id="mask-2" fill="white">
                    <use xlink:href="#path-1"></use>
                </mask>
                <g id="Clip-2"></g>
                <path d="M37.5389504,35.7291188 L37.7693789,35.8043764 L37.8074764,35.6532544 L37.9610954,35.5397612 L37.6538574,35.3880323 L37.5389504,35.7291188 Z M37.2317125,32.1671314 L36.9631865,32.3947248 L37.039996,32.6975756 L37.308522,32.8486976 L37.3853315,32.4323535 L37.6925694,32.3558822 L37.7306669,32.091267 L37.5776624,32.091267 L37.2317125,32.1671314 Z M37.6157599,28.5292796 L37.6157599,28.4916508 L37.8842859,28.3399219 L37.9991929,28.2640575 L37.7693789,27.8853422 L37.154903,28.5669083 L37.3853315,28.7945017 L37.6157599,28.5292796 Z M28.171879,47.4753625 L27.7491196,47.5894626 L28.210591,47.7405846 L28.171879,47.4753625 Z M37.193615,29.9312545 L37.193615,29.8177613 L36.9244745,29.3249459 L36.732758,29.5519323 L36.7708555,29.7042681 L36.7708555,30.1212191 L37.039996,30.2723411 L37.193615,29.9312545 Z M37.2704244,38.911784 L37.5389504,39.1017486 L37.3853315,38.7600551 L37.2704244,38.911784 Z M37.1168055,33.6825996 L37.039996,34.1748081 L36.9631865,34.7811167 L37.2317125,34.8193524 L37.5776624,34.2512794 L37.1168055,33.6825996 Z M38.1915239,26.8626895 L38.3838549,26.8626895 L38.4987619,26.6350961 L38.0766169,26.4451316 L37.6925694,27.0896759 L37.9229979,26.9755757 L38.1915239,26.8626895 Z M29.1316905,26.5592317 L29.3615045,26.6350961 L29.553221,26.4075028 L29.553221,26.1422807 L29.0542665,26.0287875 L29.1316905,26.5592317 Z M30.2445064,28.3022932 L30.3600279,28.0364641 L30.1295994,28.188193 L30.2445064,28.3022932 Z M38.4606644,27.3925267 L38.2302359,27.354898 L38.0379049,27.4683912 L38.1915239,27.771849 L38.4987619,27.8477134 L38.6136689,27.6201201 L38.4219524,27.6201201 L38.4606644,27.3925267 Z M29.0929785,31.3338364 L29.5151234,31.5225871 L29.553221,31.0303786 L29.1316905,31.1821075 L29.0929785,31.3338364 Z M46.9754576,18.0794075 C46.9754576,17.6776294 46.7057027,17.4336494 46.2718827,17.4336494 L45.5640064,17.4336494 L45.5640064,18.7828226 L46.2718827,18.7828226 C46.7057027,18.7828226 46.9754576,18.4817925 46.9754576,18.0794075 Z M46.9349022,16.3229939 C46.9349022,15.9206089 46.6651473,15.6602421 46.2313273,15.6602421 L45.5640064,15.6602421 L45.5640064,16.9687521 L46.2313273,16.9687521 C46.6651473,16.9687521 46.9349022,16.7253789 46.9349022,16.3229939 Z M31.1275083,31.106243 L31.4347463,31.0680073 L31.3579368,30.8033922 L31.1275083,31.106243 Z M37.7693789,30.7645496 L38.1534264,30.689292 L38.1534264,30.4240699 L38.0379049,30.1582409 L37.6157599,30.0829834 L37.308522,30.5375632 L37.308522,30.8786497 L37.1168055,31.2197362 L37.193615,31.5608228 L37.6925694,31.5984515 L37.7693789,31.5984515 L37.7693789,30.7645496 Z M47.1745479,45.5429434 L47.0977384,46.1868808 L46.9441194,46.2251165 L47.3662644,46.3386097 L47.5192689,45.8464012 L47.7496973,45.8464012 L47.3275524,45.2018568 L47.1745479,45.5429434 Z M48.0188378,44.8983991 L47.8265068,45.315957 L48.1337448,45.315957 L48.3260758,44.9372417 L48.3260758,44.7472771 L48.1724568,44.6714126 L48.0188378,44.8983991 Z M47.5966928,39.4052064 L47.8265068,39.177613 L47.8265068,38.3813398 L47.5579809,37.9267601 L47.5192689,37.6991667 L47.5192689,38.2678466 L47.6735023,38.5713044 L47.4424594,38.9500197 L47.3275524,39.5939571 L47.6347903,39.8215504 L47.5966928,39.4052064 Z M52.0792949,18.413818 C51.8943376,18.9849255 51.3904674,19.3132668 50.6954951,19.3132668 C49.9999083,19.3132668 49.4954235,18.9849255 49.3110807,18.413818 C49.2232107,18.1443475 49.2004751,17.8117578 49.2004751,17.2224428 C49.2004751,16.631307 49.2232107,16.2993242 49.3110807,16.0298537 C49.4954235,15.4581392 49.9999083,15.1297979 50.6954951,15.1297979 C51.3904674,15.1297979 51.8943376,15.4581392 52.0792949,16.0298537 C52.1665505,16.2993242 52.1892861,16.631307 52.1892861,17.2224428 C52.1892861,17.8117578 52.1665505,18.1443475 52.0792949,18.413818 Z M50.5904197,41.9056984 L50.5904197,42.397907 C50.5523222,42.9283512 50.5136102,43.8757463 50.5136102,44.1409684 L50.2450842,45.6188078 L50.1688892,46.0357588 L49.8229392,47.1725116 C49.6693202,47.6270914 49.4395062,48.0440424 49.2471752,48.4609934 C49.1703658,48.650351 48.6714113,49.067302 48.1724568,49.4460173 L47.9039308,49.7112394 C47.6735023,49.901204 47.0590264,50.3175481 46.9441194,50.3557837 C46.8285979,50.3934125 46.5600719,50.6210058 46.4445504,50.6586346 C46.3296434,50.6962634 45.7151675,50.7721278 45.484739,50.8103635 C45.2930225,50.8479923 44.4487325,50.8103635 44.218304,50.8103635 C43.9878756,50.8103635 43.0280641,50.735106 42.7595381,50.6962634 L41.6848197,50.5833771 L41.4924887,50.5445345 C41.2626747,50.5075126 40.9935342,50.4310413 40.6488132,50.3934125 C40.2260538,50.3934125 39.8039088,50.2416836 39.3049543,50.2040549 L38.9977164,50.1287973 C38.5755714,50.0146972 37.7693789,49.7494751 37.6157599,49.6736107 L36.8095675,49.0290663 L36.579139,48.6127223 L36.3874225,48.3468932 C36.1950915,47.8929204 35.849756,47.0966472 35.5425181,46.566203 L35.5425181,46.1868808 L35.5044206,45.6188078 C35.4657086,45.1259924 35.3127041,43.9516108 35.3127041,43.6863887 C35.2739921,43.4211666 35.3508016,42.4737714 35.3508016,42.2085493 C35.3508016,41.9815629 35.3127041,41.3752542 35.2739921,40.8824388 L35.3127041,40.4654878 L35.3127041,40.0485368 C35.3127041,39.6321928 35.2739921,38.8359196 35.2739921,38.6465619 C35.2739921,38.4195755 35.3508016,37.7374024 35.3127041,37.5480447 C35.3127041,37.3586871 35.3508016,36.6006496 35.3127041,36.410685 C35.3127041,36.1836986 35.3127041,35.7291188 35.3508016,35.3121678 L35.3895136,35.0469457 L35.3895136,31.940145 L35.4657086,31.5984515 C35.5044206,31.2197362 35.4657086,30.9162785 35.4657086,30.5375632 L35.4276111,30.0829834 C35.4657086,29.7042681 35.3895136,28.9086018 35.3895136,28.6810085 L35.3895136,28.3022932 C35.3895136,28.3022932 35.5425181,27.8853422 35.619942,27.7336133 C35.6580395,27.5818844 35.734849,26.9755757 35.8116585,26.8626895 C35.849756,26.7862181 36.042087,26.2934027 36.156994,26.1799095 L36.8095675,25.535972 L37.001284,25.4224788 L37.3472339,25.2325143 C37.6538574,25.0437635 38.3451429,24.7779345 38.5368594,24.7020701 C38.7291904,24.6650482 39.1513353,24.4744767 39.4966708,24.3609835 L39.9575278,24.285726 L40.2260538,24.1716259 L41.7616292,23.9064038 L42.4529146,23.9064038 C42.8363476,23.9064038 43.5657306,23.9446395 43.7574471,23.9064038 C43.9497781,23.9064038 44.525542,23.9446395 44.7172585,23.9446395 C44.9095895,23.9446395 45.369832,24.019897 45.67707,24.0957614 L45.9836935,24.0957614 L46.3683554,24.1339971 C46.7130764,24.2474903 47.4049763,24.5509481 47.5579809,24.5885769 C47.7496973,24.6262056 48.1337448,24.7779345 48.4409828,24.9296634 L48.7476063,25.1190211 L49.0167468,25.2713569 C49.3239847,25.687094 49.6693202,26.2934027 49.8229392,26.6727249 L49.9378462,27.0138114 C50.1688892,27.4301555 50.2831817,27.9229709 50.3606057,28.188193 L50.4368007,28.605144 C50.4368007,28.9462306 50.4368007,29.7042681 50.4755127,29.8936257 C50.4755127,30.1212191 50.5136102,30.5757988 50.5523222,30.8786497 L50.4755127,31.2956007 L50.4755127,31.5608228 C50.4368007,31.940145 50.4755127,32.6217112 50.4368007,32.8110688 C50.4368007,33.0010334 50.3987032,33.7202283 50.3606057,33.9478217 C50.3218937,34.1748081 50.3218937,34.6299948 50.3218937,34.9710813 L50.3987032,35.3504035 L50.3987032,35.6532544 C50.3987032,36.1460698 50.5523222,37.2069582 50.5136102,37.4345515 L50.5136102,38.7224263 L50.5523222,39.177613 C50.6291317,39.7080572 50.6678436,40.1244013 50.5904197,40.578981 C50.5523222,40.9965389 50.6291317,41.4887475 50.5904197,41.9056984 Z M35.1941102,15.1929171 L35.8540574,15.1953448 L35.8540574,18.6887507 L37.537107,18.6887507 L37.537107,18.226888 L38.1564988,18.226888 L38.1564988,19.24772 L35.1941102,19.2452923 L35.1941102,15.1929171 Z M41.4949466,14.9258743 L43.3457482,19.24772 L42.6452456,19.24772 L41.4949466,16.5123516 L40.3421897,19.24772 L39.6435306,19.24772 L41.4949466,14.9258743 Z M44.9452291,15.1953448 L46.2055193,15.1953448 C47.0700869,15.1953448 47.5094373,15.5971229 47.5094373,16.2993242 C47.5094373,16.82552 47.2894549,17.0810314 47.1628728,17.1854209 C47.2771653,17.2631061 47.5610532,17.5137622 47.5610532,18.1036841 C47.5610532,18.8058854 47.1106424,19.24772 46.2454602,19.24772 L44.9452291,19.24772 L44.9452291,15.1953448 Z M32.5094648,32.8869333 C32.4326553,32.9621908 31.9724128,33.1527623 31.7800818,33.1527623 C31.5883653,33.1897841 30.9357918,33.1527623 30.7053634,33.1139197 C30.5130324,33.1139197 29.7455519,33.1139197 29.4770259,33.0762909 C29.2465975,33.0386622 28.440405,33.1139197 28.286786,33.0762909 C28.0950695,33.0762909 27.903353,32.9621908 27.8259291,32.8110688 C27.7878315,32.6975756 27.6342126,32.242389 27.6342126,31.9019093 L27.8259291,31.5984515 C27.9414505,31.4097008 27.903353,30.9162785 27.903353,30.5757988 L27.903353,30.3482055 C27.9801625,29.9694902 27.9801625,29.173217 27.9414505,29.0597238 C27.9414505,28.9086018 27.481208,28.5292796 27.2888771,28.4151795 C27.0965461,28.3399219 26.6363036,28.0746998 26.4058751,28.0364641 C26.1754466,27.9988354 25.7152042,27.771849 25.3692542,27.5818844 L24.7172952,27.6959845 L24.4481547,27.7336133 C24.0641073,27.7336133 23.6038648,27.8853422 23.4115338,28.0364641 L23.0661983,28.3399219 L22.6827653,28.6427728 C22.5285319,28.8703661 22.1831964,29.2873171 22.1063869,29.439046 L21.9527679,30.3482055 L21.9914799,30.689292 L21.9146704,31.1821075 C21.9914799,31.7495735 21.9914799,32.3947248 21.9146704,32.6217112 L22.0295774,33.0010334 L22.0682894,33.2656486 C22.0682894,33.4550062 21.9914799,34.0613149 21.9914799,34.2130438 C21.9914799,34.4024014 22.0295774,34.7440949 22.1063869,34.9710813 L22.0295774,35.2739322 L21.9914799,35.6908831 C22.0682894,36.2219343 22.2981034,37.2069582 22.2981034,37.4345515 C22.2981034,37.6991667 22.2600059,37.9267601 22.2600059,38.0026245 C22.2600059,38.1161177 22.3368154,38.5330687 22.2981034,38.6465619 C22.2600059,38.7600551 22.1831964,39.328735 22.1831964,39.5563283 L22.0295774,40.8442031 C21.9914799,41.1094252 21.9914799,41.9815629 21.9914799,42.246785 C21.9914799,42.5490289 21.9914799,43.497031 22.0295774,43.7246244 C22.0682894,43.9516108 22.2219084,44.7849058 22.2981034,45.0507349 C22.3755273,45.315957 22.6440533,45.9975231 22.7208628,46.149252 C22.7970579,46.3386097 23.1042958,46.6803031 23.4115338,46.9449183 L23.9492003,46.983154 L24.2564382,47.0590184 C24.5630617,47.1725116 25.0620162,47.2866118 25.2162497,47.2477692 C25.4079662,47.2477692 26.0218277,47.0966472 26.2141586,47.0207828 C26.4058751,46.983154 26.9435416,46.566203 27.0584486,46.4903386 C27.1739701,46.4144741 27.4424961,45.9222656 27.5574031,45.7705367 C27.6729245,45.5805721 27.7878315,44.9372417 27.8259291,44.7472771 C27.864641,44.5579194 27.9801625,43.9133751 27.9801625,43.7246244 C28.0176455,43.5728955 27.9414505,42.8530936 27.9414505,42.6631291 C27.903353,42.5120071 27.9801625,41.8674628 27.9801625,41.7157339 C27.9801625,41.564005 27.5186911,41.2235254 27.1352581,41.2993898 C26.7512106,41.3752542 26.0605396,41.2993898 25.8682087,41.3364117 C25.6383947,41.3364117 25.2924447,41.1094252 25.2162497,41.0341677 C25.1394402,40.9576963 24.9471092,40.8442031 24.9858212,40.6172167 C25.0239187,40.4278591 25.0620162,39.9726724 25.0239187,39.6698215 L25.0239187,39.2152418 L25.0620162,38.8741552 C24.9858212,38.4572043 25.0239187,37.6991667 25.0620162,37.6233023 C25.1007282,37.5480447 25.4847757,37.3963159 25.6383947,37.3586871 C25.7913992,37.3586871 26.4445871,37.3586871 26.7131131,37.3204514 C27.0197366,37.2828226 27.6729245,37.244587 28.210591,37.244587 L28.6321215,37.2069582 C28.9393595,37.2069582 29.553221,37.2828226 30.0527899,37.3204514 L30.3981254,37.3586871 C30.8970799,37.3586871 31.5496533,37.3586871 31.8956033,37.3963159 L32.2403243,37.4721803 C32.4326553,37.5098091 32.3171338,37.7374024 32.3171338,37.7750312 L32.3945578,38.1161177 C32.3945578,38.6847976 32.4326553,39.3663638 32.4707528,39.5563283 C32.4707528,39.7080572 32.5094648,40.3902303 32.4707528,40.6172167 C32.3945578,40.8065744 32.3945578,41.2611541 32.4707528,41.6022407 L32.4707528,41.9427203 L32.5094648,42.2844138 C32.5094648,42.6631291 32.3558458,43.5346598 32.3558458,43.6863887 L32.4707528,44.5579194 L32.4707528,45.0883636 L32.5094648,45.315957 C32.3558458,45.8464012 32.2028413,46.6038318 32.1254173,46.717325 C32.0486078,46.8690539 31.7032723,47.3618693 31.5496533,47.5135982 C31.4347463,47.6270914 31.2424153,48.0822781 31.1275083,48.2334 C31.0119869,48.4227577 30.3981254,48.91618 30.2826039,49.0290663 L29.7074544,49.7112394 C29.6306449,49.8629683 29.169788,50.1658192 29.0542665,50.2040549 C28.9780715,50.2799193 28.6321215,50.3175481 28.3635955,50.3557837 L27.9414505,50.469277 L27.7878315,50.5445345 C27.4424961,50.469277 26.7893081,50.5075126 26.6750156,50.5445345 C26.5207821,50.5445345 26.1754466,50.5833771 25.8682087,50.6210058 L25.6383947,50.5833771 C25.2162497,50.5833771 24.6785832,50.7721278 24.1796287,50.7721278 L23.7187718,50.8103635 C23.2198173,50.7721278 22.2219084,50.5445345 21.9146704,50.5075126 C21.6074324,50.5075126 20.9929565,50.4310413 20.8399519,50.3557837 C20.686333,50.2416836 20.110569,50.0146972 19.9950475,49.9770684 C19.8801405,49.901204 19.457381,49.484253 19.381186,49.3319172 C19.3043765,49.1807952 18.6899006,48.5368578 18.6130911,48.3857358 C18.5749936,48.2334 17.9605176,47.5135982 17.8456106,47.3236336 C17.7688011,47.1725116 17.5383726,46.4527098 17.4615632,46.2627452 C17.4234656,46.0739945 17.3466562,45.6564366 17.3466562,45.2777213 L17.2311347,44.8983991 C17.1930372,44.6337839 17.2311347,44.1033397 17.2311347,43.8381176 L17.2311347,43.3829309 C17.1549397,42.9283512 17.2692322,41.9815629 17.2311347,41.829834 C17.1930372,41.6404763 17.1930372,41.1476609 17.1930372,40.7689456 L17.3079442,40.3143659 L17.3466562,39.9350436 C17.2692322,39.3663638 17.0394182,38.4572043 17.0775157,38.2678466 C17.0775157,38.0784889 17.1549397,37.2069582 17.1549397,36.9417361 C17.1162277,36.7141428 16.9626087,36.0319697 16.9626087,35.8043764 C16.9626087,35.5773899 17.0007062,34.6299948 17.0007062,34.4024014 C16.9626087,34.1748081 16.8857992,33.3038843 16.8857992,33.1527623 C16.9245112,33.0010334 16.9626087,32.4323535 17.0007062,31.940145 L17.0007062,31.6360803 C17.0775157,31.106243 17.1549397,30.7275277 17.2311347,30.3858343 L17.3079442,29.9694902 C17.3466562,29.4766748 17.3466562,28.6810085 17.3847537,28.5292796 C17.4234656,28.3781576 17.6538941,27.8088708 17.9224201,27.2790335 L18.0373271,26.937947 L18.1528486,26.6727249 C18.4213746,26.2563808 18.8822316,25.5736008 19.0739481,25.4224788 C19.2269526,25.2713569 19.9188525,24.5885769 20.110569,24.4744767 C20.3022855,24.3609835 21.0697659,24.0957614 21.3001944,23.9822682 C21.4919109,23.9064038 22.0682894,23.7546749 22.5285319,23.6788104 L22.9125793,23.602946 L23.2198173,23.602946 C23.7574838,23.5653172 24.8702997,23.5653172 25.1007282,23.602946 C25.3692542,23.602946 26.1754466,23.7929106 26.4445871,23.7929106 C26.7131131,23.7929106 27.481208,24.0581327 27.711022,24.0957614 C27.9801625,24.1716259 28.5172145,24.3609835 28.9393595,24.5509481 L29.3615045,24.7403058 L29.7455519,24.853799 C30.0527899,25.0807854 30.6672659,25.4977364 31.0506989,25.8011941 L31.2811273,26.104045 L31.4728438,26.4075028 C31.7800818,26.6727249 32.1641293,27.2025622 32.3558458,27.5818844 L32.3171338,28.0746998 C32.2790363,28.5292796 32.3558458,28.7945017 32.3945578,29.0214881 L32.4326553,29.4766748 C32.3945578,29.8177613 32.5094648,30.5375632 32.5094648,30.8033922 C32.5094648,31.106243 32.6243718,31.940145 32.6243718,32.1288957 C32.5862743,32.3188603 32.5862743,32.8110688 32.5094648,32.8869333 Z M15.4688176,15.7707007 L15.4688176,16.2161768 L14.8488114,16.2161768 L14.8488114,15.1953448 L18.473605,15.1953448 L18.473605,16.2161768 L17.8542133,16.2161768 L17.8542133,15.7707007 L16.9896456,15.7707007 L16.9896456,19.24772 L16.3303129,19.24772 L16.3303129,15.7707007 L15.4688176,15.7707007 Z M21.2829891,14.9258743 L23.1337907,19.24772 L22.4332881,19.24772 L21.2829891,16.5123516 L20.1308467,19.24772 L19.4315731,19.24772 L21.2829891,14.9258743 Z M24.7338861,15.1953448 L25.9935618,15.1953448 C26.8587439,15.1953448 27.2974797,15.5971229 27.2974797,16.2993242 C27.2974797,16.82552 27.0781118,17.0810314 26.9509153,17.1854209 C27.0658223,17.2631061 27.3490957,17.5137622 27.3490957,18.1036841 C27.3490957,18.8058854 26.8992993,19.24772 26.0341172,19.24772 L24.7338861,19.24772 L24.7338861,15.1953448 Z M29.1998973,18.6814678 L29.8217469,18.6814678 L29.8217469,15.761597 L29.1998973,15.761597 L29.1998973,15.1953448 L31.1035438,15.1953448 L31.1035438,15.761597 L30.4810796,15.761597 L30.4810796,18.6814678 L31.1035438,18.6814678 L31.1035438,19.24772 L29.1998973,19.24772 L29.1998973,18.6814678 Z M33.5,0.00182074667 C14.9852251,0.0776851913 0,14.4797914 0,32.7752608 C0,40.3714159 2.65637954,49.9533987 11.510978,58.1115576 C24.3418504,69.9324519 33.5,74 33.5,74 C33.5,74 42.6581496,69.7133554 55.489022,57.8924611 C64.3436205,49.7343022 67,40.3714159 67,32.7752608 C67,14.4797914 52.0153894,0.0776851913 33.5,0.00182074667 Z M47.9801258,37.244587 L48.2486518,37.4345515 L48.4790803,37.1687225 L48.4790803,36.7900072 L48.4028853,36.676514 L47.9801258,37.244587 Z M47.9801258,29.5907749 L47.6347903,29.173217 L47.5966928,29.4766748 L47.6735023,29.6277967 L47.9801258,29.5907749 Z M50.6954951,15.6377862 C50.3010015,15.6377862 50.0214149,15.8326061 49.9058935,16.1876517 C49.8512051,16.3533397 49.8321564,16.6883571 49.8321564,17.2224428 C49.8321564,17.7553146 49.8512051,18.0897251 49.9065079,18.2572338 C50.0214149,18.6104586 50.3010015,18.8046716 50.6954951,18.8046716 C51.0887597,18.8046716 51.3689607,18.6098517 51.4844822,18.2560199 C51.5391705,18.090332 51.5576048,17.7559215 51.5576048,17.2224428 C51.5576048,16.6877501 51.5391705,16.3527328 51.4820243,16.185831 C51.3689607,15.8326061 51.0887597,15.6377862 50.6954951,15.6377862 Z M40.0343373,25.6112296 L39.6502898,25.6500722 L39.8420063,25.9146874 L39.9956253,25.7635654 L40.0343373,25.6112296 Z M40.6101013,48.3098714 L40.6101013,48.4609934 L40.5713893,48.4609934 L39.9956253,48.6885867 L40.8405297,48.6885867 L40.7631058,48.4609934 L41.0322462,48.2716357 L40.6101013,48.3098714 Z M38.2683334,32.8869333 L37.9229979,32.925169 L37.9991929,33.3797487 L38.1915239,33.6067351 L38.3838549,33.6067351 L38.4987619,33.1897841 L38.6910929,33.1527623 L38.3838549,32.5464536 L38.2683334,32.8869333 Z M42.3761051,25.0437635 L42.1456767,24.9672922 L41.7616292,25.1190211 L41.9914432,25.3083787 L42.3761051,25.0437635 Z M45.9836935,39.6321928 C45.9836935,39.4804639 45.9074984,38.911784 45.9074984,38.7224263 C45.9074984,38.4954399 45.9462104,37.661538 45.9462104,37.3963159 C45.9462104,37.0928581 45.9836935,36.2219343 45.9836935,35.9561052 C45.9836935,35.6532544 45.9462104,34.9710813 45.9462104,34.8575881 C45.9462104,34.7052523 45.9836935,34.326537 45.9836935,33.9860573 L45.9836935,33.4173775 C45.9462104,33.1897841 45.9462104,32.7352044 45.9462104,32.4323535 L45.9074984,32.091267 L45.8694009,31.7125517 C45.9074984,31.1432649 45.8694009,30.3482055 45.791977,29.8553901 L45.7538795,29.4766748 C45.7538795,28.7945017 45.67707,28.3022932 45.6389724,28.2640575 C45.408544,28.1123286 45.1781155,27.9988354 44.794068,27.9229709 C44.4487325,27.8477134 43.8729686,27.7336133 43.4889211,27.6959845 L43.0667761,27.6959845 C42.6059191,27.6577488 41.6848197,27.6959845 41.6080102,27.7336133 C41.4924887,27.771849 40.9935342,28.1505643 40.8786272,28.2640575 C40.7631058,28.3781576 40.4564823,28.8327374 40.3796728,28.9462306 C40.3028633,29.0979595 40.1111468,29.6277967 40.0724348,29.7795256 C40.0724348,29.9312545 40.0343373,30.2723411 40.0724348,30.5375632 L40.1492443,30.7645496 C40.2260538,31.0303786 40.2260538,31.3338364 40.2260538,31.5984515 L40.3028633,32.1288957 C40.3028633,32.4323535 40.1111468,33.1897841 40.1111468,33.3797487 C40.0724348,33.5684994 40.1111468,34.1748081 40.1111468,34.326537 C40.1111468,34.5165015 40.1492443,35.1604389 40.1492443,35.3121678 C40.1111468,35.5015255 40.0724348,36.1460698 40.0724348,36.3354275 C40.0343373,36.5247851 40.1111468,37.2069582 40.1111468,37.4345515 C40.1111468,37.6233023 40.1111468,38.0408602 40.0724348,38.343711 L40.0724348,39.0258841 C40.0724348,39.4804639 40.0343373,40.162637 39.9956253,40.578981 L39.9194303,41.1094252 L39.8807183,41.564005 C39.8420063,42.0191917 39.9194303,42.8530936 39.9956253,43.3829309 L39.9956253,44.2920904 C40.0343373,44.7849058 40.3028633,45.6946723 40.3796728,45.8840299 L40.7250083,46.6038318 L41.1858652,46.7555607 L41.4924887,46.7931894 C41.7997267,46.8690539 42.2605837,46.9449183 42.5291097,46.9449183 L42.7982501,47.0590184 L43.0280641,47.1348829 C43.3740141,47.1725116 43.9116805,47.2477692 44.2564016,47.2477692 L44.48683,47.2477692 C44.794068,47.2477692 45.101306,47.2101404 45.254925,47.0590184 L45.447256,46.8690539 L45.791977,45.5805721 L45.8694009,45.0883636 L45.9462104,44.5579194 C45.9074984,44.0274752 45.9836935,43.1935733 45.9836935,43.0424513 C45.9836935,42.8530936 45.9074984,42.3220425 45.9074984,42.1703136 C45.9074984,42.0191917 45.9462104,41.564005 46.0224054,41.1476609 L45.9836935,40.6930812 L46.0224054,40.3513877 C45.9462104,40.2002657 45.9462104,39.7450791 45.9836935,39.6321928 Z M47.8265068,35.7291188 L47.9420283,36.0702054 L48.0956473,35.4638967 L47.8265068,35.7291188 Z M47.8265068,43.8381176 L48.1337448,43.8381176 L48.1337448,43.5346598 L47.8265068,43.6105242 L47.8265068,43.8381176 Z M41.2239627,48.6885867 L41.3775817,48.9920445 L41.8771507,48.8020799 L41.6848197,48.6885867 L41.2239627,48.6885867 Z M48.3260758,28.5669083 L47.9420283,28.605144 L48.0188378,28.8703661 L48.3260758,28.5669083 Z M37.7693789,28.9086018 L37.2704244,29.0979595 L37.193615,29.4008103 L37.3853315,29.5149104 L37.6157599,29.5149104 L37.5776624,29.173217 L37.9229979,29.0979595 L37.7693789,28.9086018 Z M19.342474,34.5917591 L19.457381,34.1748081 L19.6116145,33.7960928 L19.3043765,33.6825996 L19.2656646,33.4932419 L19.1507575,33.1527623 L18.9203291,33.1139197 L18.8435196,33.6067351 L19.0739481,34.0236861 L18.8048076,34.4024014 L19.342474,34.5917591 Z M19.0352361,38.343711 L18.9203291,37.8891313 L18.6518031,37.7374024 L18.8048076,37.661538 L18.6130911,37.0928581 L18.2677556,37.4345515 L18.1909461,37.8132668 L18.4213746,38.1161177 L18.6518031,38.4572043 L19.0352361,38.343711 Z M19.2269526,35.8802408 L19.3043765,35.8043764 L19.6878095,35.9561052 L19.8414285,36.1078341 L19.95695,36.1078341 L20.225476,35.8043764 L20.3022855,35.7667476 L18.9584266,35.3121678 L18.7279981,35.7291188 L18.9203291,36.0702054 L19.2269526,35.8802408 Z M20.1486665,39.9726724 L19.9950475,40.1244013 L20.225476,40.2761302 L20.1486665,39.9726724 Z M19.496093,46.983154 L19.9188525,47.2866118 L19.9950475,47.1725116 L19.803331,47.0590184 L19.496093,46.983154 Z M19.95695,46.2627452 L19.95695,45.9975231 L19.803331,45.8464012 L19.496093,46.0357588 L19.4192835,46.149252 L19.7265215,46.3386097 L19.95695,46.2627452 Z M19.5729025,41.3364117 L19.6116145,40.9576963 L19.5729025,40.6930812 L19.381186,40.3902303 L19.381186,40.0109081 L18.6130911,39.5939571 L18.4594721,39.9726724 L18.9971386,40.4654878 L18.9584266,40.9206745 L18.9203291,41.0717965 L19.457381,41.3364117 L19.5729025,41.3364117 Z M18.2677556,35.6908831 L18.1909461,35.2739322 L17.9605176,36.0319697 L17.9986151,36.4495276 L18.2290436,36.4495276 L18.2677556,35.6908831 Z M26.7229447,16.3229939 C26.7229447,15.9206089 26.4538042,15.6602421 26.0193697,15.6602421 L25.3520489,15.6602421 L25.3520489,16.9687521 L26.0193697,16.9687521 C26.4538042,16.9687521 26.7229447,16.7253789 26.7229447,16.3229939 Z M33.3525258,0 C33.4016838,0 33.4508419,0.00121383111 33.5,0.00182074667 C33.5491581,0.00121383111 33.5983162,0 33.6474742,0 L33.3525258,0 Z M26.7635001,18.0794075 C26.7635001,17.6776294 26.4943597,17.4336494 26.0599252,17.4336494 L25.3520489,17.4336494 L25.3520489,18.7828226 L26.0599252,18.7828226 C26.4943597,18.7828226 26.7635001,18.4817925 26.7635001,18.0794075 Z M19.803331,32.8869333 L20.2635735,33.0010334 L20.3022855,32.6593399 L20.3022855,32.5464536 L19.9950475,32.3947248 L19.8801405,32.091267 L19.7265215,31.8636736 L19.4192835,31.5608228 L19.496093,32.242389 L19.803331,32.8869333 Z M20.071857,38.0408602 L20.379095,38.1161177 L20.4559045,38.1161177 L20.071857,37.8891313 L20.071857,38.0408602 Z M19.764619,37.1687225 L19.649712,36.9799718 L19.342474,36.3354275 L19.1507575,36.5247851 L19.2269526,36.8282429 L19.342474,37.3586871 L19.3043765,37.3963159 L20.3022855,37.6233023 L20.379095,37.6233023 L19.803331,37.1687225 L19.764619,37.1687225 Z M20.647621,38.6847976 L20.494002,38.4572043 L19.4192835,38.1161177 L19.5729025,38.4572043 L19.5341905,38.6465619 L19.496093,39.1017486 L19.3043765,39.2911062 L20.225476,39.2528705 L20.1873785,38.911784 L20.2635735,38.7600551 L20.647621,38.6847976 Z M28.7095455,46.7555607 L28.555312,46.6414605 L28.479117,46.717325 L28.594024,46.8690539 L28.7095455,46.7555607 Z M20.225476,36.4865494 L19.9950475,36.8282429 L20.340383,37.0928581 L20.6095235,36.7900072 L20.4559045,36.2219343 L20.225476,36.4865494 Z M29.8604589,43.7246244 L29.6687424,43.8757463 L29.6687424,44.1033397 L29.6306449,44.2920904 L29.284695,44.5955482 L29.553221,44.8231415 L29.7074544,44.8231415 L30.0140779,44.4061905 L30.2445064,44.2550686 L30.2445064,44.0274752 L30.2826039,43.9516108 L30.1676969,43.6487599 L29.8604589,43.7246244 Z M29.0542665,45.5805721 L29.3234069,45.6946723 L29.553221,45.4294502 L29.553221,45.3912145 L29.3615045,45.2400925 L29.0542665,45.5805721 Z M30.4368374,40.8442031 L30.2445064,40.8824388 L30.5130324,40.9576963 L30.4368374,40.8442031 Z M30.3981254,41.8674628 L30.6285539,41.8674628 L30.6672659,41.7539696 L30.8589824,41.6781051 L30.5898419,41.3364117 L30.1676969,41.564005 L30.2826039,41.829834 L30.3981254,41.8674628 Z M30.0527899,42.5120071 L29.7836494,42.5120071 L29.7836494,42.7396004 L30.0140779,42.9665868 L30.3981254,42.8907224 L30.5517444,42.3602782 L30.0908874,42.3220425 L30.0527899,42.5120071 Z M20.071857,43.6863887 L20.3022855,43.9516108 L20.379095,44.1792041 L20.3022855,44.5196837 L20.7244305,44.6337839 L20.1486665,43.6105242 L20.071857,43.6863887 Z M29.8223614,40.5031166 L29.9378829,40.3143659 L30.1295994,40.2378945 L29.553221,40.1244013 L29.284695,40.6548455 L29.6306449,40.6548455 L29.8223614,40.5031166 Z M20.80124,37.9649957 L20.9548589,38.1161177 L21.1852874,38.1161177 L20.9548589,37.8508956 L20.80124,37.9649957 Z M21.1084779,25.4977364 L21.3001944,25.8011941 L21.5306229,25.9146874 L21.6842419,25.5736008 L21.4919109,25.4224788 L21.1084779,25.4977364 Z M20.3022855,26.8238469 L20.3022855,27.0138114 L20.6095235,27.0138114 L20.7244305,26.6727249 L20.6095235,26.4075028 L20.3022855,26.8238469 Z M29.3615045,42.8907224 L29.3615045,42.4361426 L29.5151234,42.2844138 L29.6306449,42.246785 L29.8223614,42.0568204 L29.8223614,41.7539696 L29.4770259,41.5269831 L29.169788,41.829834 L28.901262,42.3220425 L29.169788,42.7396004 L29.3615045,42.8907224 Z M21.3389064,26.520996 L21.6074324,26.6350961 L21.3770039,26.3692671 L21.3389064,26.520996 Z" id="Fill-1" fill="#FFFFFF" mask="url(#mask-2)"></path>
            </g>
        </g>
    </g>
</svg>