<svg width="200" height="24" viewBox="0 0 200 24" xmlns="http://www.w3.org/2000/svg"><title>Group 4</title><g fill="#FFF" fill-rule="evenodd"><path d="M76.628 23.452V20.42h3.318V4.762h-3.318V1.726H86.79v3.036h-3.32V20.42h3.32v3.032M0 1.726v5.47h3.31V4.813h4.6v18.64h3.522V4.812h4.614v2.385h3.308v-5.47M59.86 20.962h-3.777V13.73h3.778c2.32 0 3.758 1.304 3.758 3.46 0 2.158-1.44 3.772-3.757 3.772zM56.084 4.216h3.562c2.318 0 3.757 1.4 3.757 3.558 0 2.156-1.44 3.46-3.757 3.46h-3.562V4.216zm8.536 8.18c.677-.557 1.85-1.93 1.85-4.75 0-3.766-2.344-5.92-6.964-5.92H52.78v21.726h6.943c4.62 0 7.02-2.367 7.02-6.133 0-3.164-1.512-4.508-2.124-4.923zM40.5 23.452L34.354 8.787l-6.152 14.665H24.47L34.356.28l9.883 23.172M167.78 20.962H164V13.73h3.78c2.317 0 3.757 1.304 3.757 3.46 0 2.158-1.44 3.772-3.757 3.772zM164 4.216h3.563c2.318 0 3.758 1.4 3.758 3.558 0 2.156-1.44 3.46-3.757 3.46H164V4.216zm8.537 8.18c.678-.557 1.85-1.93 1.85-4.75 0-3.766-2.343-5.92-6.962-5.92h-6.727v21.726h6.943c4.62 0 7.023-2.367 7.023-6.133 0-3.164-1.514-4.508-2.126-4.923zM148.417 23.452l-6.143-14.665-6.153 14.665h-3.73L142.273.28l9.882 23.172M191.4 4.1c-2.107 0-3.598 1.042-4.214 2.946-.295.89-.396 2.684-.396 5.547 0 2.857.1 4.65.4 5.55.612 1.895 2.103 2.938 4.21 2.938 2.1 0 3.595-1.045 4.213-2.942.292-.89.39-2.685.39-5.545 0-2.866-.098-4.66-.402-5.556-.605-1.895-2.1-2.938-4.2-2.938m0 19.707c-3.715 0-6.408-1.76-7.39-4.827-.47-1.44-.593-3.226-.593-6.387 0-3.167.123-4.948.593-6.394.982-3.066 3.675-4.826 7.39-4.826 3.712 0 6.4 1.76 7.39 4.825.466 1.445.586 3.226.586 6.393 0 3.16-.12 4.946-.586 6.387-.99 3.066-3.678 4.827-7.39 4.827M108.63 23.44V1.715l3.525.012v18.73h8.987V17.98h3.306v5.472"/></g></svg>