<svg xmlns="http://www.w3.org/2000/svg" viewBox="0 0 494 108.52">
  <title>アセット 1</title>
  <g id="レイヤー_2" data-name="レイヤー 2">
    <g id="デザイン">
      <path d="M32.25,21.68l5.38,41.9H38l7.69-41.9h7.21l7.69,41.9h.58l5.19-41.9H76.55L66,88.95H57.33L49.65,45.51H49L41.28,88.95H32.64L22.07,21.68Z"/>
      <path d="M82,39.36c0-5.09.38-10,5-14.32a16.78,16.78,0,0,1,11.82-4.32A16.78,16.78,0,0,1,110.65,25c4.61,4.32,5,9.23,5,14.32v31.9c0,5.09-.38,10-5,14.32a16.78,16.78,0,0,1-11.82,4.32A16.78,16.78,0,0,1,87,85.58c-4.61-4.32-5-9.23-5-14.32Zm24-1.44c0-2-.19-4-2-5.86a8,8,0,0,0-10.38,0c-1.83,1.83-2,3.84-2,5.86V72.71c0,2,.19,4,2,5.86a8,8,0,0,0,10.38,0c1.83-1.83,2-3.84,2-5.86Z"/>
      <path d="M137.15,21.68c4.9,0,12-.29,16.53,5.29,2.21,2.69,3.56,6.73,3.56,11.72v5.09a16.87,16.87,0,0,1-3.56,10.67,13.37,13.37,0,0,1-5.09,3.46l10.57,31h-10l-9.32-29h-5.67v29h-9.61V21.68Zm-3,29.6h5.48a8.13,8.13,0,0,0,6-2.21c1.92-1.83,2-3.46,2-6.05v-4.8a9,9,0,0,0-2.21-6.15c-1.92-1.92-4.23-1.73-6.25-1.73h-5Z"/>
      <path d="M175.3,21.68V79.82h20.37v9.13h-30V21.68Z"/>
      <path d="M215.95,21.68c4,0,9.8.19,14,4,4.9,4.52,5.19,11.63,5.19,14.51V69.92c0,4.61-.48,9.51-4.32,13.74-4.23,4.61-9.8,5.29-13.55,5.29H203V21.68Zm-3.36,57.85h4.32a8.4,8.4,0,0,0,6.44-2.31c2-2.21,2.21-5.67,2.21-7.88V39.55a9.82,9.82,0,0,0-1.83-6.25c-1.83-2.21-3.84-2.21-6.25-2.21h-4.9Z"/>
      <path d="M296.76,21.68v9.13H284.85V88.95h-9.61V30.81H263.32V21.68Z"/>
      <path d="M301.65,39.36c0-5.09.38-10,5-14.32a18.31,18.31,0,0,1,23.64,0c4.61,4.32,5,9.23,5,14.32v31.9c0,5.09-.38,10-5,14.32a18.32,18.32,0,0,1-23.64,0c-4.61-4.32-5-9.23-5-14.32Zm24-1.44c0-2-.19-4-2-5.86a8,8,0,0,0-10.38,0c-1.83,1.83-2,3.84-2,5.86V72.71c0,2,.19,4,2,5.86a8,8,0,0,0,10.38,0c1.83-1.83,2-3.84,2-5.86Z"/>
      <path d="M344.2,21.68h14.32c4.13,0,9.23.19,13.45,4.42,4.42,4.52,4.9,10.38,4.9,15.38V43.4c0,3.75-.38,9.32-4.13,13.65-3.94,4.52-9.13,5.29-13.26,5.29h-5.67V88.95H344.2Zm9.61,32H359a8.28,8.28,0,0,0,6.44-2.5c2-2.21,1.83-4.52,1.83-6.92V39.84c0-2.31.1-5.57-2.59-7.78-2.21-1.83-4.9-1.73-7.5-1.73h-3.36Z"/>
      <path d="M393.4,21.68V88.95h-9.61V21.68Z"/>
      <path d="M424.72,37a8.35,8.35,0,0,0-1.25-4.42,5.84,5.84,0,0,0-5-2.4,6.16,6.16,0,0,0-5,2.21c-1.54,1.92-1.63,4.32-1.63,6.63V72.13c0,2.21,0,4.23,1.25,6a5.82,5.82,0,0,0,4.9,2.4,6.71,6.71,0,0,0,5.38-2.31c.48-.67,1.35-2.21,1.35-5.48V70.3h9.61v2.79c0,6.63-2.31,10.47-4,12.3-2,2.21-6,4.52-12.59,4.52-6.34,0-10-2.59-12.11-5.09-3.46-4-3.36-8.65-3.36-12.11V37.82c0-4.42.58-9.42,4.9-13.17a17.07,17.07,0,0,1,11-3.94c4,0,8.74,1.54,11.63,4.32A16,16,0,0,1,434,36.19V40.8h-9.32Z"/>
      <path d="M463.93,38.5c0-1.44-.1-4.23-1.63-6.15a6.07,6.07,0,0,0-5.09-2.21A6.42,6.42,0,0,0,452.5,32c-1.83,1.92-2,4.61-2,6.82,0,1.83.29,5.19,1.54,7,1.06,1.63,3,2.4,4.42,3l5.86,2.11c2.88,1.06,6.25,2.31,8.74,5.77s2.88,7.4,2.88,11.63v2.31c0,6.82-1.83,12-4.61,14.89-2.5,2.59-6.92,4.42-12.49,4.42-6.82,0-11.24-2.79-13.45-5.86-3.07-4.13-3.07-10.47-3.07-11.34V70.5h9.61v1.83c0,1.54.19,4.23,1.54,6a6.58,6.58,0,0,0,5.29,2.21c3.65,0,5.29-1.44,6.05-2.4,1.44-1.83,1.54-4.61,1.54-6.63V69c0-2.31-.29-5.19-1.54-6.92a9.85,9.85,0,0,0-4.61-3l-7-2.5c-3.46-1.25-6.92-3-8.84-7.5-1.35-3.08-1.44-6.44-1.44-9.8V37.34a17.05,17.05,0,0,1,5-12.49c3.17-3.08,7.21-4.13,11.63-4.13,9.61,0,16,6.25,16,17.39v2.21h-9.61Z"/>
      <path d="M494,108.52H0V0H494ZM7.91,100.61H486.09V7.91H7.91Z"/>
    </g>
  </g>
</svg>